#define amulettiny_width 14
#define amulettiny_height 33
static char amulettiny_bits[] = {
   0xff, 0xdf, 0x45, 0xd4, 0xa9, 0xd2, 0x51, 0xd1, 0xba, 0xcb, 0x44, 0xc4,
   0xa4, 0xc4, 0xe6, 0xc4, 0xa5, 0xc4, 0x05, 0xc4, 0xa5, 0xc4, 0xe5, 0xc4,
   0xa5, 0xc4, 0x05, 0xc4, 0xa5, 0xc5, 0xa6, 0xc4, 0xe6, 0xc4, 0x04, 0xc4,
   0x24, 0xcc, 0x24, 0xd4, 0xe4, 0xe4, 0x04, 0xe4, 0xe4, 0xe4, 0x24, 0xd4,
   0xe4, 0xcc, 0x04, 0xc4, 0xe8, 0xc2, 0x48, 0xc2, 0x50, 0xc1, 0x10, 0xc1,
   0xa0, 0xc0, 0xa0, 0xc0, 0x40, 0xc0};
