#define arrow_right_width 16
#define arrow_right_height 16
static char arrow_right_bits[] = {
   0x00, 0x01, 0x00, 0x03, 0x00, 0x07, 0x00, 0x0f, 0xf8, 0x1f, 0xf8, 0x3f,
   0xf8, 0x7f, 0xf8, 0xff, 0xf8, 0x7f, 0xf8, 0x3f, 0xf8, 0x1f, 0x00, 0x0f,
   0x00, 0x07, 0x00, 0x03, 0x00, 0x01, 0x00, 0x00};
