#define arrow_left_width 16
#define arrow_left_height 16
static char arrow_left_bits[] = {
   0x80, 0x00, 0xc0, 0x00, 0xe0, 0x00, 0xf0, 0x00, 0xf8, 0x3f, 0xfc, 0x3f,
   0xfe, 0x3f, 0xff, 0x3f, 0xfe, 0x3f, 0xfc, 0x3f, 0xf8, 0x3f, 0xf0, 0x00,
   0xe0, 0x00, 0xc0, 0x00, 0x80, 0x00, 0x00, 0x00};
