#define /usr0/af1x/work.inspect/amulet/lib/arrow.xbm_width 16
#define /usr0/af1x/work.inspect/amulet/lib/arrow.xbm_height 16
static unsigned char /usr0/af1x/work.inspect/amulet/lib/arrow.xbm_bits[] = {
   0x00, 0x00, 0x06, 0x00, 0x1e, 0x00, 0x7c, 0x00, 0xfc, 0x01, 0xf8, 0x07,
   0xf8, 0x1f, 0xf0, 0x03, 0xf0, 0x01, 0xe0, 0x02, 0x60, 0x04, 0x40, 0x08,
   0x40, 0x10, 0x00, 0x20, 0x00, 0x40, 0x00, 0x00};
