#define crosshair_width 17
#define crosshair_height 17
static char crosshair_bits[] = {
   0x00, 0x01, 0x00, 0x00, 0x01, 0x00, 0x00, 0x01, 0x00, 0x00, 0x01, 0x00,
   0x80, 0x03, 0x00, 0x40, 0x05, 0x00, 0x20, 0x09, 0x00, 0x10, 0x11, 0x00,
   0xff, 0xff, 0x01, 0x10, 0x11, 0x00, 0x20, 0x09, 0x00, 0x40, 0x05, 0x00,
   0x80, 0x03, 0x00, 0x00, 0x01, 0x00, 0x00, 0x01, 0x00, 0x00, 0x01, 0x00,
   0x00, 0x01, 0x00};
