#define fun_width 16
#define fun_height 16
static char fun_bits[] = {
   0x00, 0x00, 0x00, 0x00, 0x00, 0x00, 0x3c, 0x00, 0x04, 0x00, 0x04, 0x00,
   0x04, 0x00, 0x04, 0x00, 0x5c, 0x7a, 0x44, 0x4a, 0x44, 0x4a, 0x44, 0x4a,
   0xc4, 0x4b, 0x00, 0x00, 0x00, 0x00, 0x00, 0x00};
