#define kling_width 73
#define kling_height 34
#define kling_x_hot 0
#define kling_y_hot 16
static char kling_bits[] = {
   0x00, 0x00, 0x00, 0x00, 0x00, 0xfc, 0xff, 0xff, 0x00, 0x00, 0x00, 0x00,
   0x00, 0x00, 0x00, 0x04, 0x00, 0x00, 0x01, 0x00, 0x00, 0x00, 0x00, 0x00,
   0x00, 0xfc, 0x00, 0xff, 0x00, 0x00, 0x00, 0x00, 0x00, 0x00, 0x00, 0x80,
   0x00, 0x01, 0x00, 0x00, 0x00, 0x00, 0x00, 0x00, 0x00, 0x00, 0x01, 0x02,
   0x00, 0x00, 0x00, 0x00, 0x00, 0x00, 0x00, 0x00, 0xc2, 0x07, 0x00, 0x00,
   0x00, 0x00, 0x00, 0x00, 0x00, 0x80, 0x3f, 0x04, 0x00, 0x00, 0x00, 0x00,
   0x00, 0x00, 0x00, 0x7f, 0x00, 0x02, 0x00, 0x00, 0x00, 0x00, 0x00, 0x00,
   0xff, 0x00, 0x00, 0x01, 0x00, 0x00, 0xe0, 0x01, 0x00, 0xf0, 0x0f, 0x00,
   0x80, 0x00, 0x00, 0x00, 0x30, 0x03, 0x00, 0x10, 0xf0, 0xff, 0x40, 0x00,
   0x00, 0x00, 0x18, 0x07, 0x00, 0x30, 0x00, 0x00, 0x3f, 0x00, 0x00, 0x00,
   0x0c, 0x0d, 0x00, 0x60, 0x00, 0x00, 0x20, 0x00, 0x00, 0x00, 0x26, 0x19,
   0x00, 0x40, 0x00, 0x80, 0xff, 0x00, 0x00, 0x00, 0x53, 0x11, 0x00, 0x78,
   0x00, 0xc0, 0x00, 0x01, 0x00, 0x00, 0x69, 0xf5, 0xff, 0x4f, 0x00, 0xa0,
   0xff, 0x00, 0x00, 0x00, 0x49, 0x15, 0x00, 0x58, 0x00, 0x10, 0x22, 0x00,
   0x00, 0x00, 0x69, 0xf5, 0xff, 0x4f, 0x00, 0xa0, 0xff, 0x00, 0x00, 0x00,
   0x53, 0x11, 0x00, 0x78, 0x00, 0xc0, 0x00, 0x01, 0x00, 0x00, 0x26, 0x19,
   0x00, 0x40, 0x00, 0x80, 0xff, 0x00, 0x00, 0x00, 0x0c, 0x0d, 0x00, 0x60,
   0x00, 0x00, 0x20, 0x00, 0x00, 0x00, 0x18, 0x07, 0x00, 0x30, 0x00, 0x00,
   0x3e, 0x00, 0x00, 0x00, 0x30, 0x03, 0x00, 0x10, 0x00, 0xfe, 0x41, 0x00,
   0x00, 0x00, 0xe0, 0x01, 0x00, 0x10, 0xfe, 0x01, 0x80, 0x00, 0x00, 0x00,
   0x00, 0x00, 0x00, 0xf0, 0x01, 0x00, 0x00, 0x01, 0x00, 0x00, 0x00, 0x00,
   0x00, 0x00, 0xff, 0x00, 0x00, 0x02, 0x00, 0x00, 0x00, 0x00, 0x00, 0x00,
   0x00, 0xff, 0x00, 0x04, 0x00, 0x00, 0x00, 0x00, 0x00, 0x00, 0x00, 0x80,
   0x7f, 0x08, 0x00, 0x00, 0x00, 0x00, 0x00, 0x00, 0x00, 0x00, 0x84, 0x0f,
   0x00, 0x00, 0x00, 0x00, 0x00, 0x00, 0x00, 0x00, 0x02, 0x04, 0x00, 0x00,
   0x00, 0x00, 0x00, 0x00, 0x00, 0x00, 0x01, 0x02, 0x00, 0x00, 0x00, 0x00,
   0x00, 0x00, 0x00, 0xf8, 0x01, 0xfe, 0x00, 0x00, 0x00, 0x00, 0x00, 0x00,
   0x00, 0x08, 0x00, 0x00, 0x01, 0x00, 0x00, 0x00, 0x00, 0x00, 0x00, 0xf8,
   0xff, 0xff, 0x00, 0x00};
