#define rom_width 36
#define rom_height 45
#define rom_x_hot 0
#define rom_y_hot 22
static char rom_bits[] = {
   0xff, 0xff, 0xff, 0x0f, 0x00, 0x19, 0x00, 0x00, 0x08, 0x00, 0x3f, 0xf8,
   0xff, 0x0f, 0x00, 0x20, 0x10, 0x00, 0x00, 0x00, 0x20, 0x60, 0x00, 0x00,
   0x00, 0x40, 0x80, 0x00, 0x00, 0x00, 0x40, 0x00, 0x01, 0x00, 0x00, 0x80,
   0x00, 0x06, 0x00, 0x00, 0x80, 0x00, 0x08, 0x00, 0x00, 0x00, 0x01, 0x10,
   0x00, 0x00, 0x00, 0x01, 0x60, 0x00, 0x00, 0x00, 0x02, 0x80, 0x00, 0x00,
   0x80, 0x1f, 0x00, 0x01, 0x00, 0x60, 0xe0, 0x07, 0x06, 0x00, 0x10, 0x00,
   0xf8, 0x09, 0x00, 0x08, 0x92, 0x00, 0xfe, 0x01, 0x04, 0x00, 0x00, 0x00,
   0x01, 0x82, 0xc0, 0x07, 0x80, 0x00, 0x02, 0x30, 0x78, 0x40, 0x00, 0x21,
   0x0c, 0x80, 0x40, 0x00, 0x01, 0x02, 0x8f, 0x40, 0x00, 0x11, 0x81, 0xf0,
   0xff, 0x0f, 0x01, 0x41, 0x10, 0x00, 0x08, 0x11, 0x81, 0xf0, 0xff, 0x0f,
   0x01, 0x02, 0x8f, 0x40, 0x00, 0x21, 0x0c, 0x80, 0x40, 0x00, 0x02, 0x30,
   0x7c, 0x40, 0x00, 0x82, 0xc0, 0x03, 0x80, 0x00, 0x04, 0x00, 0x00, 0x00,
   0x01, 0x08, 0x92, 0x00, 0xfe, 0x01, 0x10, 0x00, 0xf8, 0x09, 0x00, 0x60,
   0xe0, 0x07, 0x06, 0x00, 0x80, 0x1f, 0x00, 0x01, 0x00, 0x00, 0x02, 0x80,
   0x00, 0x00, 0x00, 0x01, 0x60, 0x00, 0x00, 0x00, 0x01, 0x10, 0x00, 0x00,
   0x80, 0x00, 0x08, 0x00, 0x00, 0x80, 0x00, 0x06, 0x00, 0x00, 0x40, 0x00,
   0x01, 0x00, 0x00, 0x40, 0x80, 0x00, 0x00, 0x00, 0x20, 0x60, 0x00, 0x00,
   0x00, 0x20, 0x10, 0x00, 0x00, 0x00, 0x3f, 0xf8, 0xff, 0x1f, 0x00, 0x19,
   0x00, 0x00, 0x10, 0x00, 0xff, 0xff, 0xff, 0x1f, 0x00};
