#define centerX_width 16
#define centerX_height 16
static unsigned char centerX_bits[] = {
   0x03, 0x60, 0x03, 0x60, 0x03, 0x60, 0x03, 0x60, 0x03, 0x60, 0xe3, 0x63,
   0xe3, 0x63, 0xe3, 0x63, 0xe3, 0x63, 0xe3, 0x63, 0x03, 0x60, 0x03, 0x60,
   0x03, 0x60, 0x03, 0x60, 0x03, 0x60, 0x00, 0x00};
