#define rightout_width 16
#define rightout_height 16
static unsigned char rightout_bits[] = {
   0x00, 0x00, 0xff, 0x01, 0xff, 0x01, 0x80, 0x01, 0x80, 0x01, 0x80, 0x01,
   0x80, 0xf9, 0x80, 0xf9, 0x80, 0xf9, 0x80, 0xf9, 0x80, 0xf9, 0x80, 0x01,
   0x80, 0x01, 0x80, 0x01, 0xff, 0x01, 0xff, 0x01};
