#define rightin_width 16
#define rightin_height 16
static unsigned char rightin_bits[] = {
   0x00, 0x00, 0xff, 0x01, 0xff, 0x01, 0x80, 0x01, 0x80, 0x01, 0x80, 0x01,
   0x9f, 0x01, 0x9f, 0x01, 0x9f, 0x01, 0x9f, 0x01, 0x9f, 0x01, 0x80, 0x01,
   0x80, 0x01, 0x80, 0x01, 0xff, 0x01, 0xff, 0x01};
