#define bottomin_width 16
#define bottomin_height 16
static unsigned char bottomin_bits[] = {
   0x06, 0xc0, 0x06, 0xc0, 0xc6, 0xc7, 0xc6, 0xc7, 0xc6, 0xc7, 0xc6, 0xc7,
   0xc6, 0xc7, 0x06, 0xc0, 0xfe, 0xff, 0xfe, 0xff, 0x00, 0x00, 0x00, 0x00,
   0x00, 0x00, 0x00, 0x00, 0x00, 0x00, 0x00, 0x00};
