#define bottomout_width 16
#define bottomout_height 16
static unsigned char bottomout_bits[] = {
   0x06, 0xc0, 0x06, 0xc0, 0x06, 0xc0, 0x06, 0xc0, 0x06, 0xc0, 0x06, 0xc0,
   0x06, 0xc0, 0xfe, 0xff, 0xfe, 0xff, 0x00, 0x00, 0x00, 0x00, 0xc0, 0x07,
   0xc0, 0x07, 0xc0, 0x07, 0xc0, 0x07, 0xc0, 0x07};
