#define left_width 16
#define left_height 16
static unsigned char left_bits[] = {
   0xc0, 0xff, 0xc0, 0xff, 0xc0, 0x00, 0xc0, 0x00, 0xc0, 0x00, 0xdf, 0x00,
   0xdf, 0x00, 0xdf, 0x00, 0xdf, 0x00, 0xdf, 0x00, 0xc0, 0x00, 0xc0, 0x00,
   0xc0, 0x00, 0xc0, 0xff, 0xc0, 0xff, 0x00, 0x00};
