#define right_width 16
#define right_height 16
static unsigned char right_bits[] = {
   0xc0, 0xff, 0xc0, 0xff, 0xc0, 0x00, 0xc0, 0x00, 0xc0, 0x00, 0xc0, 0x3e,
   0xc0, 0x3e, 0xc0, 0x3e, 0xc0, 0x3e, 0xc0, 0x3e, 0xc0, 0x00, 0xc0, 0x00,
   0xc0, 0x00, 0xc0, 0xff, 0xc0, 0xff, 0x00, 0x00};
