#define above_width 16
#define above_height 16
static unsigned char above_bits[] = {
   0xe0, 0x03, 0xe0, 0x03, 0xe0, 0x03, 0xe0, 0x03, 0xe0, 0x03, 0x00, 0x00,
   0xff, 0x7f, 0xff, 0x7f, 0x03, 0x60, 0x03, 0x60, 0x03, 0x60, 0x03, 0x60,
   0x03, 0x60, 0x03, 0x60, 0x03, 0x60, 0x03, 0x60};
