#define arrow01_width 22
#define arrow01_height 22
static unsigned char arrow01_bits[] = {
   0x00, 0x00, 0x1c, 0x00, 0x00, 0x22, 0x00, 0x00, 0x22, 0x03, 0x00, 0x22,
   0x0f, 0x00, 0x22, 0x3e, 0x00, 0x22, 0xfe, 0x00, 0x22, 0xfc, 0x03, 0x22,
   0xfc, 0x07, 0x22, 0xf8, 0x01, 0x1c, 0xf8, 0x00, 0x00, 0x70, 0x01, 0x00,
   0x30, 0x02, 0x08, 0x20, 0x04, 0x0c, 0x20, 0x08, 0x0a, 0x00, 0x10, 0x08,
   0x00, 0x00, 0x08, 0x00, 0x00, 0x08, 0x00, 0x00, 0x08, 0x00, 0x00, 0x08,
   0x00, 0x00, 0x08, 0x00, 0x00, 0x3e};
