#define one_width 25
#define one_height 25
static unsigned char one_bits[] = {
   0x00, 0x38, 0x00, 0x00, 0x80, 0xc7, 0x03, 0x00, 0x40, 0x00, 0x04, 0x00,
   0x30, 0x00, 0x18, 0x00, 0x08, 0x00, 0x20, 0x00, 0x08, 0x00, 0x20, 0x00,
   0x04, 0x30, 0x40, 0x00, 0x02, 0x28, 0x80, 0x00, 0x02, 0x24, 0x80, 0x00,
   0x02, 0x24, 0x80, 0x00, 0x02, 0x20, 0x80, 0x00, 0x01, 0x20, 0x00, 0x01,
   0x01, 0x20, 0x00, 0x01, 0x01, 0x20, 0x00, 0x01, 0x02, 0x20, 0x80, 0x00,
   0x02, 0x20, 0x80, 0x00, 0x02, 0x20, 0x80, 0x00, 0x02, 0x20, 0x80, 0x00,
   0x04, 0xfc, 0x41, 0x00, 0x08, 0x00, 0x20, 0x00, 0x08, 0x00, 0x20, 0x00,
   0x30, 0x00, 0x18, 0x00, 0x40, 0x00, 0x04, 0x00, 0x80, 0xc7, 0x03, 0x00,
   0x00, 0x38, 0x00, 0x00};
