#define out_width 25
#define out_height 25
static unsigned char out_bits[] = {
   0x00, 0x38, 0x00, 0x00, 0x80, 0xc7, 0x03, 0x00, 0x40, 0x00, 0x04, 0x00,
   0x30, 0x00, 0x18, 0x00, 0x08, 0x00, 0x20, 0x00, 0x08, 0x7c, 0x20, 0x00,
   0x04, 0x82, 0x40, 0x00, 0x02, 0x81, 0x80, 0x00, 0x02, 0x81, 0x80, 0x00,
   0x02, 0x80, 0x80, 0x00, 0x02, 0x40, 0x80, 0x00, 0x01, 0x20, 0x00, 0x01,
   0x01, 0x10, 0x00, 0x01, 0x01, 0x08, 0x00, 0x01, 0x02, 0x08, 0x80, 0x00,
   0x02, 0x08, 0x80, 0x00, 0x02, 0x00, 0x80, 0x00, 0x02, 0x00, 0x80, 0x00,
   0x04, 0x08, 0x40, 0x00, 0x08, 0x08, 0x20, 0x00, 0x08, 0x08, 0x20, 0x00,
   0x30, 0x00, 0x18, 0x00, 0x40, 0x00, 0x04, 0x00, 0x80, 0xc7, 0x03, 0x00,
   0x00, 0x38, 0x00, 0x00};
