#define zero_width 25
#define zero_height 25
static unsigned char zero_bits[] = {
   0x00, 0x38, 0x00, 0x00, 0x80, 0xc7, 0x03, 0x00, 0x40, 0x00, 0x04, 0x00,
   0x30, 0x00, 0x18, 0x00, 0x08, 0x38, 0x20, 0x00, 0x08, 0x44, 0x20, 0x00,
   0x04, 0x82, 0x40, 0x00, 0x02, 0x01, 0x81, 0x00, 0x02, 0x01, 0x81, 0x00,
   0x02, 0x01, 0x81, 0x00, 0x02, 0x01, 0x81, 0x00, 0x01, 0x01, 0x01, 0x01,
   0x01, 0x01, 0x01, 0x01, 0x01, 0x01, 0x01, 0x01, 0x02, 0x01, 0x81, 0x00,
   0x02, 0x01, 0x81, 0x00, 0x02, 0x01, 0x81, 0x00, 0x02, 0x01, 0x81, 0x00,
   0x04, 0x82, 0x40, 0x00, 0x08, 0x44, 0x20, 0x00, 0x08, 0x38, 0x20, 0x00,
   0x30, 0x00, 0x18, 0x00, 0x40, 0x00, 0x04, 0x00, 0x80, 0xc7, 0x03, 0x00,
   0x00, 0x38, 0x00, 0x00};
