#define topin_width 16
#define topin_height 16
static unsigned char topin_bits[] = {
   0x00, 0x00, 0x00, 0x00, 0x00, 0x00, 0x00, 0x00, 0x00, 0x00, 0x00, 0x00,
   0xff, 0x7f, 0xff, 0x7f, 0x03, 0x60, 0xe3, 0x63, 0xe3, 0x63, 0xe3, 0x63,
   0xe3, 0x63, 0xe3, 0x63, 0x03, 0x60, 0x03, 0x60};
