#define /usr0/af1x/work.inspect/amulet/lib/circle.xbm_width 16
#define /usr0/af1x/work.inspect/amulet/lib/circle.xbm_height 16
static unsigned char /usr0/af1x/work.inspect/amulet/lib/circle.xbm_bits[] = {
   0xc0, 0x03, 0x30, 0x0c, 0x08, 0x10, 0x04, 0x20, 0x02, 0x40, 0x02, 0x40,
   0x01, 0x80, 0x01, 0x80, 0x01, 0x80, 0x01, 0x80, 0x02, 0x40, 0x02, 0x40,
   0x04, 0x20, 0x08, 0x10, 0x30, 0x0c, 0xc0, 0x03};
