#define ds9_width 41
#define ds9_height 41
#define ds9_x_hot 20
#define ds9_y_hot 20
static char ds9_bits[] = {
   0x00, 0x00, 0xc7, 0x01, 0x00, 0x00, 0x00, 0xe0, 0x28, 0x0e, 0x00, 0x00,
   0x00, 0x18, 0x10, 0x30, 0x00, 0x00, 0x00, 0x06, 0xc7, 0xc1, 0x00, 0x00,
   0x00, 0xe2, 0x29, 0x8f, 0x00, 0x00, 0x00, 0x1a, 0x29, 0xb1, 0x00, 0x00,
   0xc0, 0x09, 0xaa, 0x20, 0x07, 0x00, 0x20, 0x08, 0x92, 0x20, 0x08, 0x00,
   0x10, 0x07, 0x92, 0xc0, 0x11, 0x00, 0x88, 0x00, 0x92, 0x00, 0x22, 0x00,
   0x48, 0x00, 0x44, 0x00, 0x24, 0x00, 0x24, 0x00, 0xfe, 0x00, 0x48, 0x00,
   0x24, 0x9c, 0x01, 0x03, 0x48, 0x00, 0x12, 0x64, 0x00, 0xe4, 0x90, 0x00,
   0x12, 0x24, 0x6c, 0x98, 0x90, 0x00, 0x12, 0x18, 0xab, 0x91, 0x90, 0x00,
   0x12, 0x90, 0x29, 0x73, 0x48, 0x00, 0x24, 0x08, 0xaa, 0x20, 0x48, 0x00,
   0x24, 0xc8, 0xab, 0x27, 0x90, 0x00, 0x13, 0x48, 0x44, 0x24, 0x20, 0x01,
   0x09, 0x48, 0x54, 0x24, 0x20, 0x01, 0x09, 0xc8, 0xc7, 0x27, 0x20, 0x01,
   0x09, 0x48, 0x38, 0x24, 0x20, 0x01, 0x09, 0x0c, 0xd7, 0x61, 0x20, 0x01,
   0xc9, 0x93, 0x28, 0x92, 0x27, 0x01, 0x32, 0x10, 0xab, 0x11, 0x98, 0x00,
   0x12, 0x22, 0x6c, 0x88, 0x90, 0x00, 0xf2, 0x53, 0x00, 0x94, 0x9f, 0x00,
   0x04, 0x89, 0x01, 0x23, 0x41, 0x00, 0x8c, 0x04, 0xfe, 0x40, 0x32, 0x00,
   0x50, 0x02, 0x48, 0x80, 0x14, 0x00, 0x90, 0x01, 0x48, 0x00, 0x23, 0x00,
   0x10, 0x01, 0x78, 0x00, 0x11, 0x00, 0x20, 0x02, 0x00, 0x80, 0x08, 0x00,
   0x40, 0x7c, 0x00, 0x7c, 0x04, 0x00, 0x80, 0x40, 0x00, 0x04, 0x02, 0x00,
   0x00, 0xc9, 0x00, 0x26, 0x01, 0x00, 0x00, 0x16, 0xff, 0xd1, 0x00, 0x00,
   0x00, 0x20, 0x00, 0x08, 0x00, 0x00, 0x00, 0xc0, 0x00, 0x06, 0x00, 0x00,
   0x00, 0x00, 0xff, 0x01, 0x00, 0x00};
