#define ent_width 55
#define ent_height 35
#define ent_x_hot 0
#define ent_y_hot 17
static char ent_bits[] = {
   0x00, 0xe0, 0x03, 0x00, 0x00, 0x00, 0x00, 0x00, 0x1c, 0x1c, 0x80, 0xff,
   0xff, 0x3f, 0x00, 0x03, 0x60, 0x40, 0x02, 0x00, 0x40, 0x80, 0x00, 0x80,
   0x20, 0x02, 0x00, 0x40, 0x40, 0x00, 0x00, 0x21, 0x02, 0x00, 0x40, 0x20,
   0x00, 0x00, 0x42, 0x02, 0x00, 0x40, 0x10, 0x00, 0x00, 0x84, 0xff, 0xff,
   0x3f, 0x08, 0xe0, 0x07, 0x08, 0x00, 0x40, 0x20, 0x04, 0x10, 0x08, 0x10,
   0x00, 0x20, 0x20, 0x04, 0x08, 0x10, 0x90, 0x07, 0x20, 0x20, 0x02, 0x04,
   0x20, 0x60, 0xf8, 0x11, 0x20, 0x02, 0x02, 0x40, 0x20, 0x00, 0x3e, 0x20,
   0x02, 0x02, 0x40, 0x60, 0x00, 0xc0, 0x23, 0x01, 0xc1, 0x03, 0x80, 0x03,
   0x00, 0x3c, 0x81, 0x20, 0x04, 0x00, 0x1c, 0x00, 0x30, 0x81, 0x10, 0xf8,
   0x00, 0xe0, 0x1f, 0x40, 0x81, 0xd0, 0x43, 0x00, 0x20, 0xe0, 0x47, 0x81,
   0x50, 0x22, 0x00, 0x3e, 0x00, 0x78, 0x81, 0xd0, 0x43, 0x00, 0x20, 0xe0,
   0x47, 0x81, 0x10, 0xf8, 0x00, 0xe0, 0x1f, 0x40, 0x81, 0x20, 0x04, 0x00,
   0x18, 0x00, 0x20, 0x01, 0xc1, 0x03, 0x80, 0x07, 0x00, 0x38, 0x02, 0x02,
   0x40, 0x60, 0x00, 0x80, 0x27, 0x02, 0x02, 0x40, 0x20, 0x00, 0x7c, 0x20,
   0x02, 0x04, 0x20, 0x60, 0xf8, 0x23, 0x20, 0x04, 0x08, 0x10, 0x90, 0x07,
   0x40, 0x20, 0x04, 0x10, 0x08, 0x10, 0x00, 0x40, 0x20, 0x08, 0xe0, 0x07,
   0x08, 0x00, 0x80, 0x20, 0x10, 0x00, 0x00, 0x84, 0xff, 0xff, 0x3f, 0x20,
   0x00, 0x00, 0x42, 0x02, 0x00, 0x40, 0x40, 0x00, 0x00, 0x21, 0x02, 0x00,
   0x40, 0x80, 0x00, 0x80, 0x20, 0x02, 0x00, 0x40, 0x00, 0x03, 0x60, 0x40,
   0x02, 0x00, 0x40, 0x00, 0x1c, 0x1c, 0x80, 0xff, 0xff, 0x3f, 0x00, 0xe0,
   0x03, 0x00, 0x00, 0x00, 0x00};
