#define hi_width 16
#define hi_height 16
static char hi_bits[] = {
   0x00, 0x00, 0x00, 0x00, 0x42, 0x7f, 0x42, 0x08, 0x42, 0x08, 0x42, 0x08,
   0x42, 0x08, 0x7e, 0x08, 0x42, 0x08, 0x42, 0x08, 0x42, 0x08, 0x42, 0x08,
   0x42, 0x7f, 0x00, 0x00, 0x00, 0x00, 0x00, 0x00};
