#define amuletside_width 35
#define amuletside_height 14
static unsigned char amuletside_bits[] = {
   0x00, 0x00, 0x70, 0x00, 0x00, 0x0c, 0x00, 0x88, 0x00, 0x00, 0x12, 0x00,
   0x04, 0x01, 0x00, 0xe1, 0xff, 0xff, 0x0f, 0x00, 0x15, 0x00, 0x00, 0x30,
   0x00, 0x99, 0x28, 0x95, 0xdd, 0x00, 0x45, 0x55, 0x95, 0x08, 0x03, 0xcb,
   0x55, 0x95, 0x09, 0x04, 0x45, 0x55, 0x95, 0x08, 0x03, 0x59, 0x45, 0xb2,
   0xc9, 0x00, 0x15, 0x00, 0x00, 0x30, 0x00, 0xe1, 0xff, 0xff, 0x0f, 0x00,
   0x92, 0x80, 0x01, 0x00, 0x00, 0x0c, 0x7f, 0x00, 0x00, 0x00};
