#define ent_width 76
#define ent_height 34
#define ent_x_hot 0
#define ent_y_hot 16
static char ent_bits[] = {
   0x00, 0x00, 0x00, 0x00, 0x00, 0x00, 0x00, 0xf8, 0x0f, 0x00, 0x00, 0xe0,
   0x0f, 0x00, 0xf8, 0xff, 0xff, 0x0f, 0x78, 0x00, 0x00, 0x1c, 0x70, 0x00,
   0xa4, 0x00, 0x00, 0xf8, 0x8f, 0x00, 0x00, 0x03, 0x80, 0x01, 0xa2, 0x00,
   0x00, 0x00, 0x00, 0x01, 0x80, 0x00, 0x00, 0x02, 0xa4, 0x00, 0x00, 0xf8,
   0x8f, 0x00, 0x40, 0x00, 0x00, 0x04, 0xf8, 0xff, 0xf3, 0x0f, 0x78, 0x00,
   0x20, 0x00, 0x00, 0x08, 0x00, 0x00, 0x12, 0xf8, 0x0f, 0x00, 0x10, 0x00,
   0x00, 0x10, 0x00, 0x00, 0x12, 0x00, 0x00, 0x00, 0x08, 0x00, 0x00, 0x20,
   0x00, 0x00, 0x12, 0x00, 0x00, 0x00, 0x08, 0x00, 0x00, 0x20, 0x00, 0x00,
   0x12, 0x00, 0x00, 0x00, 0x04, 0x00, 0x00, 0x40, 0x00, 0x00, 0x12, 0x00,
   0x00, 0x00, 0x04, 0x00, 0x00, 0xc0, 0x3f, 0x00, 0x12, 0x00, 0x00, 0x00,
   0x04, 0x80, 0x0f, 0x40, 0xc0, 0x03, 0x12, 0x00, 0x00, 0x00, 0x02, 0xc0,
   0x18, 0x40, 0x00, 0xfc, 0xf3, 0x03, 0x00, 0x00, 0x02, 0x60, 0x30, 0x40,
   0x00, 0x00, 0x00, 0x0e, 0x00, 0x00, 0x02, 0x20, 0x27, 0xc0, 0x07, 0x00,
   0x00, 0x12, 0x00, 0x00, 0x02, 0x20, 0x2f, 0x7f, 0xf8, 0xff, 0xff, 0x13,
   0x00, 0x00, 0x02, 0x20, 0x27, 0xc0, 0x07, 0x00, 0x00, 0x12, 0x00, 0x00,
   0x02, 0x60, 0x30, 0x40, 0x00, 0x00, 0x00, 0x0e, 0x00, 0x00, 0x02, 0xc0,
   0x18, 0x40, 0x00, 0xfc, 0xf3, 0x03, 0x00, 0x00, 0x04, 0x80, 0x0f, 0x40,
   0xc0, 0x03, 0x12, 0x00, 0x00, 0x00, 0x04, 0x00, 0x00, 0xc0, 0x3f, 0x00,
   0x12, 0x00, 0x00, 0x00, 0x04, 0x00, 0x00, 0x40, 0x00, 0x00, 0x12, 0x00,
   0x00, 0x00, 0x08, 0x00, 0x00, 0x20, 0x00, 0x00, 0x12, 0x00, 0x00, 0x00,
   0x08, 0x00, 0x00, 0x20, 0x00, 0x00, 0x12, 0x00, 0x00, 0x00, 0x10, 0x00,
   0x00, 0x10, 0x00, 0x00, 0x12, 0x00, 0x00, 0x00, 0x20, 0x00, 0x00, 0x08,
   0x00, 0x00, 0x12, 0xf8, 0x0f, 0x00, 0x40, 0x00, 0x00, 0x04, 0xf8, 0xff,
   0xf3, 0x0f, 0x78, 0x00, 0x80, 0x00, 0x00, 0x02, 0xa4, 0x00, 0x00, 0xf8,
   0x8f, 0x00, 0x00, 0x03, 0x80, 0x01, 0xa2, 0x00, 0x00, 0x00, 0x00, 0x01,
   0x00, 0x1c, 0x70, 0x00, 0xa4, 0x00, 0x00, 0xf8, 0x8f, 0x00, 0x00, 0xe0,
   0x0f, 0x00, 0xf8, 0xff, 0xff, 0x0f, 0x78, 0x00, 0x00, 0x00, 0x00, 0x00,
   0x00, 0x00, 0x00, 0xf8, 0x0f, 0x00, 0x00, 0x00, 0x00, 0x00, 0x00, 0x00,
   0x00, 0x00, 0x00, 0x00};
