#define bits_width 16
#define bits_height 16
static char bits_bits[] = {
   0x55, 0x55, 0xaa, 0xaa, 0x55, 0x55, 0xaa, 0xaa, 0x55, 0x55, 0xaa, 0xaa,
   0x55, 0x55, 0xaa, 0xaa, 0x55, 0x55, 0xaa, 0xaa, 0x55, 0x55, 0xaa, 0xaa,
   0x55, 0x55, 0xaa, 0xaa, 0x55, 0x55, 0xaa, 0xaa};
