#define /usr0/af1x/work.inspect/amulet/lib/rect.xbm_width 12
#define /usr0/af1x/work.inspect/amulet/lib/rect.xbm_height 8
static unsigned char /usr0/af1x/work.inspect/amulet/lib/rect.xbm_bits[] = {
   0xff, 0x0f, 0x01, 0x08, 0x01, 0x08, 0x01, 0x08, 0x01, 0x08, 0x01, 0x08,
   0x01, 0x08, 0xff, 0x0f};
